<svg xmlns="http://www.w3.org/2000/svg" xmlns:xlink="http://www.w3.org/1999/xlink" width="497" zoomAndPan="magnify" viewBox="0 0 372.75 60" height="80" preserveAspectRatio="xMidYMid meet" version="1.0"><defs><clipPath id="51f291715f"><path d="M 1 0.0195312 L 372.5 0.0195312 L 372.5 56 L 1 56 Z M 1 0.0195312 " clip-rule="nonzero"/></clipPath></defs><g clip-path="url(#51f291715f)"><path fill="#ffffff" d="M 21.929688 0.390625 C 15.75 0.390625 10.667969 0.390625 10.644531 0.398438 C 10.617188 0.410156 10.554688 0.429688 10.507812 0.457031 C 10.457031 0.476562 10.386719 0.53125 10.339844 0.570312 C 10.300781 0.609375 10.25 0.675781 10.230469 0.710938 C 10.207031 0.75 10.179688 0.820312 10.167969 0.875 C 10.140625 0.957031 10.140625 1.773438 10.140625 8.78125 C 10.140625 15.703125 10.140625 16.609375 10.160156 16.691406 C 10.179688 16.746094 10.207031 16.816406 10.226562 16.855469 C 10.25 16.890625 10.300781 16.957031 10.347656 16.996094 C 10.386719 17.039062 10.457031 17.089844 10.5 17.109375 C 10.546875 17.136719 10.617188 17.15625 10.65625 17.167969 C 10.707031 17.179688 14.308594 17.1875 21.890625 17.1875 C 30 17.1875 33.074219 17.179688 33.132812 17.167969 C 33.183594 17.15625 33.257812 17.128906 33.3125 17.097656 C 33.363281 17.074219 33.441406 17.015625 33.476562 16.96875 C 33.515625 16.925781 33.566406 16.859375 33.582031 16.828125 C 33.601562 16.796875 33.625 16.726562 33.640625 16.675781 C 33.660156 16.597656 33.664062 15.652344 33.664062 8.789062 C 33.664062 3.148438 33.660156 0.976562 33.644531 0.910156 C 33.632812 0.867188 33.605469 0.78125 33.574219 0.730469 C 33.550781 0.679688 33.484375 0.601562 33.433594 0.550781 C 33.382812 0.5 33.304688 0.457031 33.246094 0.429688 L 33.15625 0.390625 Z M 11.460938 1.703125 L 32.339844 1.703125 L 32.339844 15.863281 L 30.367188 15.863281 L 28.28125 12.582031 C 27.132812 10.773438 26.148438 9.226562 26.089844 9.136719 C 26.019531 9.035156 25.921875 8.917969 25.804688 8.800781 C 25.695312 8.691406 25.570312 8.585938 25.472656 8.519531 C 25.394531 8.46875 25.261719 8.390625 25.175781 8.351562 C 25.097656 8.3125 24.957031 8.257812 24.867188 8.230469 C 24.785156 8.203125 24.640625 8.171875 24.566406 8.160156 C 24.476562 8.140625 24.328125 8.132812 24.171875 8.132812 C 24.011719 8.132812 23.863281 8.140625 23.773438 8.160156 C 23.695312 8.171875 23.5625 8.203125 23.472656 8.230469 C 23.386719 8.257812 23.261719 8.300781 23.195312 8.332031 C 23.125 8.367188 23.027344 8.417969 22.96875 8.449219 C 22.917969 8.480469 22.816406 8.550781 22.746094 8.609375 C 22.675781 8.660156 22.558594 8.769531 22.496094 8.839844 C 22.425781 8.910156 22.332031 9.027344 22.28125 9.105469 C 22.230469 9.175781 22.078125 9.414062 21.941406 9.636719 C 21.800781 9.855469 21.679688 10.050781 21.664062 10.0625 C 21.652344 10.074219 21.480469 9.796875 20.765625 8.65625 C 20.28125 7.863281 19.839844 7.15625 19.789062 7.074219 C 19.730469 6.992188 19.640625 6.863281 19.582031 6.796875 C 19.523438 6.734375 19.421875 6.628906 19.351562 6.574219 C 19.28125 6.515625 19.175781 6.4375 19.117188 6.398438 C 19.0625 6.359375 18.945312 6.296875 18.855469 6.25 C 18.765625 6.207031 18.636719 6.15625 18.570312 6.136719 C 18.5 6.117188 18.386719 6.085938 18.316406 6.066406 C 18.207031 6.039062 18.109375 6.03125 17.84375 6.03125 C 17.589844 6.03125 17.484375 6.039062 17.382812 6.066406 C 17.3125 6.078125 17.1875 6.109375 17.117188 6.136719 C 17.042969 6.15625 16.898438 6.21875 16.789062 6.269531 C 16.6875 6.320312 16.539062 6.410156 16.460938 6.46875 C 16.386719 6.527344 16.261719 6.636719 16.179688 6.71875 C 16.101562 6.804688 16.007812 6.914062 15.96875 6.972656 C 15.933594 7.023438 14.914062 8.660156 13.703125 10.621094 C 12.496094 12.574219 11.492188 14.179688 11.480469 14.195312 C 11.460938 14.214844 11.460938 13.242188 11.460938 7.960938 Z M 29.195312 3.527344 C 28.917969 3.519531 28.835938 3.527344 28.699219 3.550781 C 28.609375 3.566406 28.496094 3.589844 28.4375 3.609375 C 28.378906 3.625 28.277344 3.65625 28.207031 3.679688 C 28.132812 3.707031 28.003906 3.765625 27.929688 3.804688 C 27.84375 3.839844 27.722656 3.914062 27.652344 3.964844 C 27.582031 4.007812 27.460938 4.097656 27.375 4.167969 C 27.292969 4.234375 27.167969 4.363281 27.09375 4.445312 C 27.023438 4.523438 26.925781 4.65625 26.867188 4.734375 C 26.816406 4.8125 26.738281 4.960938 26.6875 5.054688 C 26.640625 5.152344 26.578125 5.300781 26.550781 5.378906 C 26.527344 5.460938 26.496094 5.589844 26.476562 5.671875 C 26.457031 5.757812 26.429688 5.917969 26.425781 6.03125 C 26.40625 6.195312 26.40625 6.289062 26.425781 6.449219 C 26.429688 6.566406 26.457031 6.726562 26.46875 6.808594 C 26.488281 6.894531 26.527344 7.027344 26.550781 7.105469 C 26.578125 7.191406 26.636719 7.332031 26.679688 7.421875 C 26.726562 7.511719 26.804688 7.652344 26.847656 7.730469 C 26.898438 7.804688 26.96875 7.902344 27.007812 7.949219 C 27.042969 7.992188 27.125 8.082031 27.183594 8.148438 C 27.246094 8.210938 27.351562 8.308594 27.414062 8.359375 C 27.472656 8.410156 27.585938 8.488281 27.664062 8.539062 C 27.734375 8.589844 27.863281 8.660156 27.941406 8.699219 C 28.023438 8.746094 28.167969 8.800781 28.25 8.828125 C 28.339844 8.859375 28.480469 8.898438 28.566406 8.917969 C 28.648438 8.9375 28.785156 8.957031 28.875 8.96875 C 28.957031 8.976562 29.085938 8.988281 29.152344 8.988281 C 29.214844 8.988281 29.34375 8.976562 29.425781 8.96875 C 29.511719 8.957031 29.652344 8.9375 29.734375 8.917969 C 29.820312 8.898438 29.960938 8.859375 30.050781 8.828125 C 30.132812 8.800781 30.277344 8.746094 30.351562 8.699219 C 30.4375 8.660156 30.566406 8.589844 30.636719 8.539062 C 30.714844 8.488281 30.828125 8.410156 30.886719 8.359375 C 30.949219 8.300781 31.066406 8.199219 31.144531 8.113281 C 31.222656 8.03125 31.332031 7.902344 31.386719 7.820312 C 31.445312 7.742188 31.535156 7.582031 31.59375 7.464844 C 31.652344 7.351562 31.722656 7.191406 31.75 7.113281 C 31.773438 7.035156 31.804688 6.902344 31.824219 6.816406 C 31.84375 6.734375 31.871094 6.566406 31.878906 6.449219 C 31.890625 6.308594 31.890625 6.179688 31.878906 6.046875 C 31.871094 5.9375 31.84375 5.78125 31.832031 5.699219 C 31.8125 5.617188 31.773438 5.46875 31.742188 5.371094 C 31.710938 5.28125 31.644531 5.132812 31.605469 5.050781 C 31.5625 4.960938 31.492188 4.832031 31.441406 4.753906 C 31.386719 4.683594 31.296875 4.554688 31.226562 4.472656 C 31.15625 4.386719 31.035156 4.265625 30.964844 4.203125 C 30.886719 4.136719 30.757812 4.035156 30.679688 3.984375 C 30.597656 3.933594 30.457031 3.847656 30.359375 3.796875 C 30.261719 3.75 30.109375 3.6875 30.019531 3.65625 C 29.929688 3.625 29.789062 3.585938 29.695312 3.566406 C 29.570312 3.539062 29.464844 3.535156 29.195312 3.527344 Z M 29.226562 4.832031 C 29.3125 4.835938 29.425781 4.855469 29.496094 4.871094 C 29.5625 4.890625 29.691406 4.941406 29.773438 4.980469 C 29.863281 5.023438 29.988281 5.101562 30.042969 5.152344 C 30.101562 5.199219 30.191406 5.28125 30.238281 5.332031 C 30.277344 5.390625 30.339844 5.472656 30.367188 5.523438 C 30.398438 5.578125 30.441406 5.667969 30.46875 5.722656 C 30.488281 5.78125 30.519531 5.878906 30.53125 5.941406 C 30.550781 6.011719 30.566406 6.117188 30.566406 6.25 C 30.566406 6.386719 30.550781 6.488281 30.53125 6.566406 C 30.519531 6.625 30.488281 6.726562 30.457031 6.792969 C 30.429688 6.863281 30.371094 6.964844 30.332031 7.027344 C 30.289062 7.09375 30.21875 7.191406 30.171875 7.234375 C 30.121094 7.285156 30.042969 7.355469 29.992188 7.390625 C 29.949219 7.425781 29.859375 7.480469 29.792969 7.511719 C 29.730469 7.542969 29.644531 7.582031 29.601562 7.59375 C 29.554688 7.605469 29.464844 7.632812 29.402344 7.644531 C 29.335938 7.660156 29.222656 7.664062 29.152344 7.664062 C 29.078125 7.664062 28.976562 7.660156 28.925781 7.652344 C 28.867188 7.640625 28.785156 7.621094 28.726562 7.601562 C 28.667969 7.582031 28.566406 7.542969 28.507812 7.515625 C 28.441406 7.484375 28.332031 7.414062 28.261719 7.355469 C 28.191406 7.300781 28.089844 7.203125 28.039062 7.136719 C 27.988281 7.066406 27.914062 6.953125 27.878906 6.875 C 27.839844 6.792969 27.789062 6.667969 27.773438 6.597656 C 27.742188 6.496094 27.734375 6.417969 27.734375 6.25 C 27.734375 6.078125 27.742188 6.015625 27.773438 5.90625 C 27.792969 5.828125 27.824219 5.722656 27.851562 5.667969 C 27.878906 5.609375 27.941406 5.507812 27.988281 5.441406 C 28.03125 5.371094 28.113281 5.273438 28.167969 5.222656 C 28.222656 5.171875 28.300781 5.109375 28.339844 5.082031 C 28.386719 5.054688 28.460938 5.003906 28.527344 4.980469 C 28.585938 4.945312 28.6875 4.910156 28.75 4.890625 C 28.816406 4.871094 28.914062 4.84375 28.976562 4.835938 C 29.035156 4.832031 29.152344 4.832031 29.226562 4.832031 Z M 17.878906 7.355469 C 17.949219 7.363281 18.03125 7.371094 18.070312 7.382812 C 18.109375 7.390625 18.199219 7.421875 18.261719 7.453125 C 18.328125 7.484375 18.417969 7.535156 18.460938 7.574219 C 18.507812 7.613281 18.570312 7.664062 18.597656 7.695312 C 18.625 7.730469 19.78125 9.578125 21.164062 11.804688 C 22.539062 14.03125 23.671875 15.859375 23.664062 15.859375 C 23.664062 15.863281 21.035156 15.863281 17.820312 15.863281 L 11.980469 15.859375 L 14.488281 11.804688 C 15.871094 9.574219 17.027344 7.714844 17.0625 7.679688 C 17.09375 7.640625 17.175781 7.570312 17.242188 7.523438 C 17.304688 7.484375 17.40625 7.433594 17.472656 7.40625 C 17.535156 7.390625 17.625 7.371094 17.671875 7.363281 C 17.714844 7.355469 17.8125 7.351562 17.878906 7.355469 Z M 314.664062 8.789062 C 313.320312 8.789062 312.246094 9.175781 311.4375 9.902344 C 310.59375 10.671875 310.210938 11.589844 310.210938 12.671875 C 310.210938 13.78125 310.59375 14.703125 311.4375 15.433594 C 312.246094 16.199219 313.320312 16.546875 314.664062 16.546875 C 315.976562 16.546875 317.050781 16.199219 317.894531 15.433594 C 318.703125 14.664062 319.128906 13.707031 319.128906 12.554688 C 319.128906 11.476562 318.703125 10.558594 317.894531 9.863281 C 317.050781 9.175781 315.976562 8.789062 314.664062 8.789062 Z M 24.199219 9.457031 C 24.296875 9.464844 24.398438 9.476562 24.46875 9.503906 C 24.527344 9.523438 24.625 9.5625 24.679688 9.59375 C 24.738281 9.625 24.835938 9.695312 24.886719 9.746094 C 24.964844 9.824219 25.335938 10.410156 26.886719 12.84375 C 27.933594 14.488281 28.796875 15.84375 28.804688 15.851562 C 28.804688 15.863281 28 15.863281 27.015625 15.863281 L 25.222656 15.863281 L 23.832031 13.621094 C 23.066406 12.386719 22.429688 11.367188 22.425781 11.347656 C 22.417969 11.328125 22.5 11.171875 22.84375 10.640625 C 23.078125 10.265625 23.296875 9.921875 23.332031 9.875 C 23.355469 9.824219 23.425781 9.753906 23.480469 9.707031 C 23.523438 9.664062 23.625 9.597656 23.695312 9.5625 C 23.769531 9.527344 23.878906 9.488281 23.933594 9.476562 C 24.011719 9.464844 24.101562 9.457031 24.199219 9.457031 Z M 153.21875 11.171875 L 153.21875 20.65625 C 151.835938 19.238281 149.910156 18.503906 147.457031 18.503906 C 145.53125 18.503906 143.804688 18.96875 142.265625 19.808594 C 140.691406 20.695312 139.460938 21.960938 138.535156 23.574219 C 137.617188 25.1875 137.191406 27.070312 137.191406 29.21875 C 137.191406 31.371094 137.617188 33.289062 138.535156 34.902344 C 139.460938 36.554688 140.691406 37.820312 142.265625 38.703125 C 143.804688 39.589844 145.53125 40.011719 147.457031 40.011719 C 150.144531 40.011719 152.183594 39.203125 153.566406 37.589844 L 153.566406 39.664062 L 160.515625 39.664062 L 160.515625 11.171875 Z M 76.503906 12.785156 L 83.539062 25.796875 L 90.414062 37.019531 L 93.796875 37.019531 L 100.71875 25.417969 L 107.519531 12.785156 L 101.449219 12.785156 L 92.222656 28.296875 L 82.769531 12.785156 Z M 233.902344 12.785156 L 233.902344 18.851562 L 246.3125 18.851562 C 248.621094 18.851562 250.46875 19.5 251.851562 20.8125 C 253.234375 22.15625 253.964844 23.960938 253.964844 26.222656 C 253.964844 28.53125 253.234375 30.335938 251.851562 31.640625 C 250.46875 32.945312 248.621094 33.597656 246.3125 33.597656 L 241.511719 33.597656 L 241.511719 26.453125 L 233.902344 26.453125 L 233.902344 39.664062 L 246.621094 39.664062 C 249.542969 39.664062 252.160156 39.125 254.460938 38.015625 C 256.730469 36.933594 258.5 35.359375 259.765625 33.328125 C 260.996094 31.332031 261.652344 28.953125 261.652344 26.222656 C 261.652344 23.535156 260.996094 21.152344 259.765625 19.121094 C 258.5 17.125 256.730469 15.550781 254.460938 14.4375 C 252.160156 13.359375 249.542969 12.785156 246.621094 12.785156 Z M 49.4375 14.828125 C 47.84375 14.828125 46.519531 14.828125 46.488281 14.835938 C 46.457031 14.835938 46.367188 14.855469 46.292969 14.875 C 46.21875 14.886719 46.089844 14.9375 46.011719 14.976562 C 45.929688 15.015625 45.804688 15.082031 45.742188 15.132812 C 45.675781 15.175781 45.585938 15.261719 45.535156 15.316406 C 45.484375 15.371094 45.421875 15.453125 45.386719 15.503906 C 45.355469 15.554688 45.296875 15.652344 45.265625 15.730469 C 45.226562 15.800781 45.195312 15.890625 45.183594 15.929688 C 45.175781 15.972656 44.402344 18.730469 43.484375 22.066406 C 42.558594 25.398438 41.785156 28.175781 41.773438 28.242188 C 41.761719 28.296875 41.753906 28.433594 41.753906 28.53125 C 41.753906 28.632812 41.765625 28.761719 41.78125 28.832031 C 41.792969 28.902344 41.824219 29.003906 41.84375 29.054688 C 41.863281 29.113281 41.894531 29.191406 41.914062 29.230469 C 41.933594 29.269531 41.984375 29.351562 42.03125 29.417969 C 42.074219 29.480469 42.167969 29.582031 42.230469 29.640625 C 42.292969 29.699219 42.382812 29.777344 42.4375 29.808594 C 42.488281 29.847656 42.585938 29.898438 42.648438 29.925781 C 42.710938 29.957031 42.820312 29.996094 42.894531 30.019531 L 43.019531 30.050781 L 44.488281 30.058594 L 45.945312 30.066406 L 46.003906 30.269531 C 46.03125 30.378906 46.089844 30.554688 46.128906 30.65625 C 46.164062 30.753906 46.230469 30.90625 46.273438 30.992188 C 46.320312 31.082031 46.402344 31.226562 46.46875 31.316406 C 46.527344 31.410156 46.628906 31.550781 46.699219 31.632812 C 46.765625 31.710938 46.890625 31.84375 46.976562 31.929688 C 47.066406 32.011719 47.195312 32.121094 47.265625 32.171875 C 47.328125 32.222656 47.457031 32.3125 47.542969 32.367188 C 47.632812 32.421875 47.78125 32.5 47.882812 32.550781 C 47.980469 32.597656 48.160156 32.667969 48.273438 32.707031 C 48.390625 32.746094 48.578125 32.796875 48.691406 32.820312 C 48.800781 32.839844 48.984375 32.867188 49.097656 32.878906 C 49.21875 32.886719 49.394531 32.890625 49.511719 32.886719 C 49.621094 32.878906 49.785156 32.867188 49.890625 32.855469 C 49.984375 32.839844 50.144531 32.808594 50.242188 32.785156 C 50.347656 32.757812 50.5 32.707031 50.582031 32.675781 C 50.671875 32.640625 50.835938 32.570312 50.945312 32.511719 C 51.058594 32.457031 51.21875 32.367188 51.304688 32.308594 C 51.386719 32.25 51.507812 32.160156 51.574219 32.109375 C 51.636719 32.058594 51.773438 31.929688 51.871094 31.832031 C 51.964844 31.730469 52.089844 31.589844 52.144531 31.515625 C 52.199219 31.445312 52.273438 31.335938 52.320312 31.265625 C 52.363281 31.203125 52.441406 31.0625 52.492188 30.945312 C 52.550781 30.835938 52.617188 30.6875 52.648438 30.613281 C 52.671875 30.535156 52.710938 30.414062 52.738281 30.328125 C 52.757812 30.25 52.78125 30.160156 52.789062 30.125 L 52.796875 30.066406 L 55.632812 30.066406 L 55.78125 30.03125 C 55.855469 30.015625 55.972656 29.980469 56.035156 29.957031 C 56.09375 29.9375 56.199219 29.886719 56.253906 29.847656 C 56.3125 29.816406 56.410156 29.75 56.460938 29.707031 C 56.519531 29.660156 56.601562 29.570312 56.660156 29.5 C 56.71875 29.429688 56.796875 29.308594 56.835938 29.230469 C 56.871094 29.152344 56.929688 29.03125 56.949219 28.960938 C 56.976562 28.890625 57 28.765625 57.007812 28.691406 C 57.019531 28.605469 57.027344 28.492188 57.019531 28.414062 C 57.015625 28.34375 56.988281 28.214844 56.96875 28.132812 C 56.945312 28.046875 56.171875 25.253906 55.246094 21.921875 C 53.816406 16.785156 53.554688 15.839844 53.492188 15.710938 C 53.453125 15.625 53.386719 15.511719 53.347656 15.460938 C 53.308594 15.402344 53.21875 15.304688 53.148438 15.242188 C 53.078125 15.171875 52.976562 15.09375 52.910156 15.054688 C 52.855469 15.023438 52.757812 14.972656 52.699219 14.945312 C 52.640625 14.917969 52.53125 14.886719 52.460938 14.867188 L 52.332031 14.828125 Z M 46.609375 16.140625 L 49.40625 16.148438 L 52.199219 16.148438 L 52.25 16.203125 L 52.300781 16.261719 L 54.003906 22.398438 L 55.710938 28.542969 L 55.691406 28.605469 C 55.675781 28.644531 55.644531 28.683594 55.613281 28.710938 L 55.554688 28.746094 L 49.394531 28.746094 C 43.984375 28.746094 43.226562 28.742188 43.1875 28.722656 C 43.164062 28.710938 43.128906 28.675781 43.113281 28.65625 C 43.085938 28.625 43.074219 28.585938 43.074219 28.535156 C 43.074219 28.484375 43.605469 26.550781 44.765625 22.359375 C 45.695312 19.007812 46.460938 16.25 46.476562 16.238281 C 46.480469 16.21875 46.519531 16.191406 46.550781 16.171875 Z M 123.242188 18.503906 C 120.972656 18.503906 118.933594 18.96875 117.167969 19.886719 C 115.40625 20.8125 113.976562 22.078125 112.980469 23.691406 C 111.984375 25.34375 111.480469 27.1875 111.480469 29.21875 C 111.480469 31.292969 111.984375 33.175781 112.980469 34.789062 C 113.976562 36.441406 115.40625 37.707031 117.210938 38.628906 C 118.972656 39.550781 121.011719 40.011719 123.242188 40.011719 C 125.46875 40.011719 127.507812 39.550781 129.3125 38.628906 C 131.082031 37.707031 132.503906 36.441406 133.5 34.789062 C 134.503906 33.175781 135 31.292969 135 29.21875 C 135 27.148438 134.503906 25.304688 133.5 23.691406 C 132.503906 22.078125 131.082031 20.8125 129.3125 19.886719 C 127.507812 18.96875 125.46875 18.503906 123.242188 18.503906 Z M 175.324219 18.503906 C 173.132812 18.503906 171.171875 18.96875 169.449219 19.886719 C 167.679688 20.8125 166.328125 22.117188 165.332031 23.730469 C 164.335938 25.34375 163.871094 27.1875 163.871094 29.21875 C 163.871094 31.292969 164.375 33.175781 165.371094 34.789062 C 166.375 36.441406 167.828125 37.707031 169.671875 38.628906 C 171.519531 39.550781 173.632812 40.011719 176.089844 40.011719 C 179.976562 40.011719 182.933594 38.894531 184.972656 36.632812 L 181.125 32.636719 C 180.359375 33.289062 179.628906 33.746094 178.902344 34.015625 C 178.167969 34.324219 177.324219 34.441406 176.324219 34.441406 C 174.980469 34.441406 173.867188 34.171875 172.980469 33.597656 C 172.097656 33.019531 171.519531 32.179688 171.210938 31.101562 L 186.355469 31.101562 C 186.429688 29.949219 186.46875 29.371094 186.46875 29.292969 C 186.46875 27.070312 185.96875 25.148438 184.972656 23.535156 C 183.96875 21.925781 182.664062 20.65625 180.972656 19.808594 C 179.28125 18.96875 177.402344 18.503906 175.324219 18.503906 Z M 203.820312 18.503906 C 202.28125 18.503906 200.902344 18.773438 199.710938 19.238281 C 198.519531 19.695312 197.5625 20.425781 196.828125 21.34375 L 196.828125 18.851562 L 189.871094 18.851562 L 189.871094 39.664062 L 197.175781 39.664062 L 197.175781 30.105469 C 197.175781 28.375 197.59375 27.070312 198.484375 26.222656 C 199.363281 25.382812 200.597656 24.957031 202.175781 24.957031 C 202.59375 24.957031 203.132812 24.996094 203.820312 25.074219 Z M 220.40625 18.503906 C 219.054688 18.503906 217.824219 18.738281 216.714844 19.199219 C 215.5625 19.65625 214.597656 20.273438 213.792969 21.113281 L 213.792969 18.851562 L 206.835938 18.851562 L 206.835938 39.664062 L 214.140625 39.664062 L 214.140625 29.601562 C 214.140625 27.988281 214.480469 26.761719 215.253906 25.914062 C 216.019531 25.109375 217.023438 24.6875 218.289062 24.6875 C 220.550781 24.6875 221.710938 26.105469 221.710938 28.945312 L 221.710938 39.664062 L 229.007812 39.664062 L 229.007812 27.757812 C 229.007812 24.6875 228.207031 22.347656 226.628906 20.8125 C 225.054688 19.277344 222.976562 18.503906 220.40625 18.503906 Z M 275.453125 18.503906 C 273.265625 18.503906 271.304688 18.96875 269.574219 19.886719 C 267.804688 20.8125 266.460938 22.117188 265.457031 23.730469 C 264.460938 25.34375 264 27.1875 264 29.21875 C 264 31.292969 264.5 33.175781 265.496094 34.789062 C 266.5 36.441406 267.960938 37.707031 269.804688 38.628906 C 271.644531 39.550781 273.761719 40.011719 276.222656 40.011719 C 280.101562 40.011719 283.058594 38.894531 285.097656 36.632812 L 281.25 32.636719 C 280.488281 33.289062 279.757812 33.746094 279.027344 34.015625 C 278.292969 34.324219 277.449219 34.441406 276.453125 34.441406 C 275.105469 34.441406 273.992188 34.171875 273.109375 33.597656 C 272.222656 33.019531 271.644531 32.179688 271.34375 31.101562 L 286.480469 31.101562 C 286.558594 29.949219 286.59375 29.371094 286.59375 29.292969 C 286.59375 27.070312 286.101562 25.148438 285.097656 23.535156 C 284.101562 21.925781 282.796875 20.65625 281.105469 19.808594 C 279.414062 18.96875 277.527344 18.503906 275.449219 18.503906 Z M 298.917969 18.503906 C 296.761719 18.503906 294.960938 18.8125 293.417969 19.425781 C 291.882812 20.042969 290.730469 20.84375 289.964844 21.886719 C 289.15625 22.917969 288.769531 24.109375 288.769531 25.417969 C 288.769531 27.03125 289.195312 28.296875 290.035156 29.179688 C 290.886719 30.105469 291.882812 30.714844 293.039062 31.023438 C 294.191406 31.371094 295.613281 31.640625 297.300781 31.832031 C 298.609375 32.023438 299.535156 32.210938 300.144531 32.402344 C 300.761719 32.597656 301.070312 32.90625 301.070312 33.367188 C 301.070312 33.824219 300.800781 34.210938 300.300781 34.441406 C 299.796875 34.671875 298.957031 34.789062 297.804688 34.789062 C 296.5 34.789062 295.226562 34.632812 293.921875 34.285156 C 292.613281 33.941406 291.464844 33.484375 290.539062 32.867188 L 288.351562 37.859375 C 289.347656 38.515625 290.730469 39.046875 292.421875 39.433594 C 294.113281 39.820312 295.804688 40.011719 297.574219 40.011719 C 299.71875 40.011719 301.605469 39.742188 303.140625 39.125 C 304.679688 38.554688 305.875 37.742188 306.679688 36.710938 C 307.449219 35.667969 307.867188 34.480469 307.867188 33.175781 C 307.867188 31.601562 307.449219 30.375 306.601562 29.488281 C 305.757812 28.605469 304.792969 27.988281 303.683594 27.644531 C 302.53125 27.339844 301.109375 27.03125 299.417969 26.761719 C 298.035156 26.570312 297.070312 26.375 296.492188 26.183594 C 295.882812 25.992188 295.613281 25.652344 295.613281 25.148438 C 295.613281 24.726562 295.882812 24.378906 296.414062 24.113281 C 296.957031 23.84375 297.804688 23.691406 298.957031 23.691406 C 301.109375 23.691406 303.101562 24.222656 304.949219 25.226562 L 307.140625 20.273438 C 306.136719 19.734375 304.871094 19.277344 303.410156 18.96875 C 301.914062 18.660156 300.414062 18.503906 298.917969 18.503906 Z M 331.945312 18.503906 C 330.097656 18.503906 328.371094 18.929688 326.832031 19.769531 C 325.257812 20.621094 324.027344 21.769531 323.101562 23.304688 C 322.183594 24.839844 321.71875 26.570312 321.71875 28.53125 C 321.71875 30.527344 322.183594 32.289062 323.101562 33.824219 C 324.027344 35.359375 325.257812 36.515625 326.832031 37.359375 C 328.371094 38.207031 330.097656 38.585938 331.945312 38.585938 C 334.632812 38.585938 336.710938 37.78125 338.132812 36.132812 L 338.132812 36.824219 C 338.132812 38.515625 337.667969 39.742188 336.785156 40.585938 C 335.859375 41.433594 334.476562 41.851562 332.554688 41.851562 C 331.289062 41.851562 330.023438 41.664062 328.714844 41.277344 C 327.40625 40.894531 326.371094 40.3125 325.527344 39.625 L 322.871094 44.734375 C 324.097656 45.652344 325.636719 46.308594 327.441406 46.765625 C 329.210938 47.226562 331.132812 47.460938 333.210938 47.460938 C 337.128906 47.460938 340.164062 46.496094 342.277344 44.582031 C 344.355469 42.660156 345.429688 39.742188 345.429688 35.859375 L 345.429688 18.851562 L 338.476562 18.851562 L 338.476562 21.382812 C 337.089844 19.460938 334.902344 18.503906 331.945312 18.503906 Z M 363.6875 18.503906 C 362.34375 18.503906 361.113281 18.738281 360 19.199219 C 358.84375 19.65625 357.886719 20.273438 357.074219 21.113281 L 357.074219 18.851562 L 350.125 18.851562 L 350.125 39.664062 L 357.421875 39.664062 L 357.421875 29.601562 C 357.421875 27.988281 357.769531 26.761719 358.535156 25.914062 C 359.308594 25.109375 360.304688 24.6875 361.578125 24.6875 C 363.839844 24.6875 364.992188 26.105469 364.992188 28.945312 L 364.992188 39.664062 L 372.296875 39.664062 L 372.296875 27.757812 C 372.296875 24.6875 371.488281 22.347656 369.910156 20.8125 C 368.335938 19.277344 366.265625 18.503906 363.6875 18.503906 Z M 311.019531 18.851562 L 311.019531 39.664062 L 318.316406 39.664062 L 318.316406 18.851562 Z M 14.101562 22.355469 C 13.988281 22.347656 13.859375 22.355469 13.8125 22.359375 C 13.761719 22.375 13.28125 22.507812 12.734375 22.667969 C 12.1875 22.828125 11.710938 22.972656 11.664062 22.992188 L 11.589844 23.023438 L 11.484375 22.925781 C 11.425781 22.875 11.324219 22.792969 11.261719 22.746094 C 11.191406 22.703125 11.074219 22.644531 11.003906 22.617188 C 10.9375 22.59375 10.828125 22.558594 10.773438 22.539062 L 10.664062 22.515625 L 8.28125 22.515625 L 8.171875 22.539062 C 8.109375 22.558594 8.011719 22.59375 7.953125 22.613281 C 7.898438 22.636719 7.800781 22.683594 7.742188 22.71875 L 7.632812 22.777344 L 7.53125 22.71875 L 7.335938 22.625 C 7.285156 22.605469 7.183594 22.566406 7.117188 22.546875 L 6.996094 22.515625 L 5.859375 22.507812 C 4.894531 22.507812 4.695312 22.507812 4.574219 22.527344 C 4.496094 22.539062 4.371094 22.578125 4.296875 22.605469 C 4.21875 22.628906 4.101562 22.6875 4.027344 22.734375 C 3.953125 22.777344 3.839844 22.875 3.769531 22.9375 C 3.699219 23.003906 3.59375 23.125 3.542969 23.203125 C 3.492188 23.273438 3.425781 23.394531 3.402344 23.472656 C 3.375 23.542969 3.335938 23.644531 3.324219 23.710938 L 3.292969 23.820312 L 3.292969 28.675781 C 3.292969 31.355469 3.300781 33.566406 3.304688 33.597656 L 3.316406 33.664062 L 2.578125 33.671875 L 1.832031 33.671875 L 1.738281 33.707031 C 1.683594 33.726562 1.601562 33.773438 1.554688 33.8125 C 1.503906 33.851562 1.441406 33.921875 1.410156 33.972656 C 1.371094 34.023438 1.335938 34.101562 1.324219 34.140625 C 1.304688 34.210938 1.300781 35.554688 1.300781 43.269531 L 1.300781 52.324219 L 1.335938 52.40625 C 1.355469 52.460938 1.394531 52.53125 1.429688 52.574219 C 1.460938 52.621094 1.519531 52.675781 1.5625 52.710938 C 1.601562 52.742188 1.679688 52.78125 1.730469 52.800781 L 1.8125 52.839844 L 3.511719 52.839844 L 5.203125 52.84375 L 5.195312 52.882812 C 5.191406 52.902344 5.046875 53.390625 4.882812 53.96875 C 4.699219 54.574219 4.566406 55.066406 4.566406 55.121094 C 4.558594 55.183594 4.566406 55.253906 4.578125 55.320312 C 4.597656 55.375 4.625 55.453125 4.648438 55.492188 C 4.667969 55.53125 4.71875 55.59375 4.765625 55.632812 C 4.804688 55.679688 4.886719 55.734375 4.945312 55.761719 L 5.046875 55.8125 L 6.179688 55.8125 C 7.183594 55.820312 7.324219 55.820312 7.402344 55.792969 C 7.453125 55.78125 7.523438 55.75 7.5625 55.722656 C 7.601562 55.699219 8.207031 55.082031 8.976562 54.265625 L 10.320312 52.84375 L 33.464844 52.84375 L 34.796875 54.25 C 35.640625 55.136719 36.160156 55.679688 36.210938 55.71875 C 36.257812 55.742188 36.332031 55.78125 36.386719 55.792969 C 36.460938 55.8125 36.609375 55.820312 37.601562 55.8125 L 38.726562 55.8125 L 38.816406 55.773438 C 38.875 55.75 38.949219 55.703125 39.007812 55.644531 C 39.066406 55.589844 39.117188 55.523438 39.148438 55.460938 C 39.175781 55.410156 39.207031 55.320312 39.214844 55.265625 C 39.226562 55.195312 39.226562 55.144531 39.214844 55.074219 C 39.207031 55.015625 39.058594 54.496094 38.886719 53.910156 L 38.578125 52.84375 L 40.222656 52.84375 C 41.375 52.84375 41.894531 52.839844 41.953125 52.824219 C 42 52.820312 42.074219 52.792969 42.128906 52.765625 C 42.171875 52.75 42.25 52.691406 42.292969 52.644531 C 42.339844 52.601562 42.390625 52.523438 42.417969 52.464844 C 42.441406 52.40625 42.476562 52.316406 42.480469 52.265625 C 42.492188 52.203125 42.5 48.519531 42.5 43.230469 C 42.5 36.871094 42.492188 34.269531 42.480469 34.203125 C 42.46875 34.152344 42.441406 34.070312 42.421875 34.023438 C 42.398438 33.984375 42.347656 33.914062 42.308594 33.871094 C 42.261719 33.824219 42.191406 33.765625 42.140625 33.746094 C 42.089844 33.722656 42.003906 33.691406 41.949219 33.683594 C 41.875 33.671875 38.039062 33.664062 29.941406 33.664062 C 23.394531 33.664062 18.039062 33.664062 18.039062 33.65625 C 18.039062 33.65625 18.0625 33.597656 18.097656 33.527344 C 18.128906 33.457031 18.167969 33.328125 18.1875 33.253906 C 18.21875 33.144531 18.226562 33.066406 18.226562 32.910156 C 18.21875 32.75 18.210938 32.679688 18.179688 32.558594 C 18.160156 32.46875 17.550781 30.378906 16.828125 27.914062 C 16.101562 25.4375 15.492188 23.355469 15.464844 23.292969 C 15.433594 23.222656 15.371094 23.101562 15.316406 23.023438 C 15.265625 22.945312 15.175781 22.835938 15.117188 22.777344 C 15.054688 22.722656 14.964844 22.648438 14.914062 22.617188 C 14.863281 22.578125 14.757812 22.523438 14.6875 22.488281 C 14.609375 22.457031 14.496094 22.414062 14.425781 22.394531 C 14.339844 22.375 14.230469 22.359375 14.101562 22.355469 Z M 107.714844 23.035156 L 100.753906 35.476562 L 100.792969 39.664062 L 107.789062 39.664062 Z M 76.503906 23.382812 L 76.503906 39.664062 L 83.539062 39.664062 L 83.539062 35.9375 Z M 14.082031 23.671875 C 14.128906 23.671875 14.167969 23.691406 14.199219 23.722656 C 14.226562 23.742188 14.25 23.78125 14.257812 23.804688 C 14.269531 23.832031 14.867188 25.882812 15.59375 28.363281 C 16.320312 30.847656 16.914062 32.90625 16.914062 32.929688 C 16.914062 32.957031 16.898438 33 16.878906 33.035156 C 16.859375 33.058594 16.824219 33.097656 16.796875 33.109375 C 16.769531 33.117188 16.335938 33.253906 15.824219 33.398438 C 15.261719 33.566406 14.886719 33.671875 14.84375 33.671875 C 14.789062 33.671875 14.753906 33.664062 14.726562 33.636719 C 14.699219 33.625 14.667969 33.585938 14.65625 33.5625 C 14.644531 33.535156 14.039062 31.480469 13.304688 28.992188 C 12.578125 26.503906 11.988281 24.449219 11.988281 24.417969 C 11.988281 24.386719 12 24.339844 12.011719 24.3125 C 12.027344 24.296875 12.058594 24.261719 12.078125 24.25 C 12.101562 24.238281 12.546875 24.097656 13.066406 23.941406 C 13.808594 23.722656 14.023438 23.664062 14.082031 23.671875 Z M 175.363281 23.691406 C 176.476562 23.691406 177.394531 24.03125 178.167969 24.648438 C 178.941406 25.304688 179.394531 26.183594 179.628906 27.261719 L 171.101562 27.261719 C 171.289062 26.183594 171.75 25.304688 172.523438 24.648438 C 173.289062 24.03125 174.214844 23.691406 175.363281 23.691406 Z M 275.488281 23.691406 C 276.601562 23.691406 277.527344 24.03125 278.292969 24.648438 C 279.066406 25.304688 279.527344 26.183594 279.753906 27.261719 L 271.226562 27.261719 C 271.417969 26.183594 271.875 25.304688 272.648438 24.648438 C 273.414062 24.03125 274.339844 23.691406 275.488281 23.691406 Z M 5.820312 23.832031 L 6.816406 23.832031 L 6.875 23.859375 C 6.898438 23.878906 6.9375 23.914062 6.953125 23.941406 L 6.976562 23.992188 L 6.984375 24.71875 L 6.988281 25.453125 L 4.605469 25.453125 L 4.605469 24.75 C 4.605469 24.332031 4.609375 24.039062 4.625 24 C 4.628906 23.96875 4.648438 23.921875 4.667969 23.902344 C 4.679688 23.890625 4.71875 23.859375 4.757812 23.851562 C 4.808594 23.832031 4.992188 23.824219 5.820312 23.832031 Z M 9.511719 23.832031 L 10.519531 23.832031 L 10.566406 23.863281 C 10.585938 23.878906 10.617188 23.910156 10.636719 23.933594 L 10.664062 23.980469 L 10.667969 27.296875 L 10.675781 30.613281 L 8.289062 30.613281 L 8.296875 27.300781 L 8.300781 23.992188 L 8.328125 23.941406 C 8.347656 23.914062 8.371094 23.882812 8.390625 23.871094 C 8.410156 23.863281 8.445312 23.84375 8.46875 23.839844 C 8.488281 23.832031 8.964844 23.832031 9.515625 23.832031 Z M 123.242188 24.300781 C 124.511719 24.300781 125.546875 24.765625 126.394531 25.613281 C 127.199219 26.492188 127.625 27.679688 127.625 29.21875 C 127.625 30.792969 127.199219 32.023438 126.394531 32.90625 C 125.546875 33.792969 124.511719 34.210938 123.242188 34.210938 C 121.933594 34.210938 120.898438 33.792969 120.09375 32.90625 C 119.242188 32.023438 118.859375 30.792969 118.859375 29.21875 C 118.859375 27.679688 119.242188 26.492188 120.09375 25.613281 C 120.898438 24.765625 121.933594 24.300781 123.242188 24.300781 Z M 148.992188 24.300781 C 150.257812 24.300781 151.292969 24.765625 152.105469 25.613281 C 152.910156 26.492188 153.332031 27.679688 153.332031 29.21875 C 153.332031 30.792969 152.910156 32.023438 152.105469 32.90625 C 151.253906 33.792969 150.21875 34.210938 148.992188 34.210938 C 147.6875 34.210938 146.644531 33.792969 145.839844 32.90625 C 144.992188 32.023438 144.605469 30.792969 144.605469 29.21875 C 144.605469 27.679688 144.992188 26.492188 145.839844 25.613281 C 146.644531 24.765625 147.6875 24.300781 148.992188 24.300781 Z M 333.667969 24.300781 C 334.980469 24.300781 336.09375 24.726562 336.933594 25.496094 C 337.785156 26.261719 338.207031 27.300781 338.207031 28.53125 C 338.207031 29.796875 337.746094 30.828125 336.894531 31.601562 C 336.054688 32.402344 334.980469 32.789062 333.667969 32.789062 C 332.363281 32.789062 331.25 32.402344 330.402344 31.601562 C 329.519531 30.828125 329.097656 29.796875 329.097656 28.53125 C 329.097656 27.300781 329.519531 26.261719 330.367188 25.496094 C 331.210938 24.726562 332.324219 24.300781 333.667969 24.300781 Z M 4.605469 26.769531 L 6.992188 26.769531 L 6.984375 30.140625 L 6.976562 33.507812 L 6.953125 33.5625 C 6.933594 33.59375 6.898438 33.625 6.875 33.636719 C 6.835938 33.664062 6.726562 33.664062 5.792969 33.664062 C 4.867188 33.664062 4.757812 33.664062 4.71875 33.636719 C 4.695312 33.625 4.664062 33.59375 4.644531 33.5625 L 4.617188 33.507812 L 4.609375 30.140625 Z M 11.972656 29.152344 C 11.980469 29.164062 12.277344 30.167969 12.636719 31.390625 C 12.988281 32.609375 13.285156 33.617188 13.292969 33.636719 L 13.296875 33.664062 L 11.929688 33.664062 L 11.941406 33.605469 C 11.953125 33.574219 11.960938 32.550781 11.960938 31.34375 C 11.960938 30.109375 11.96875 29.144531 11.972656 29.152344 Z M 47.335938 30.078125 L 51.445312 30.078125 L 51.433594 30.117188 C 51.425781 30.136719 51.402344 30.199219 51.375 30.265625 C 51.347656 30.324219 51.296875 30.429688 51.257812 30.496094 C 51.214844 30.566406 51.148438 30.667969 51.105469 30.726562 C 51.058594 30.785156 50.957031 30.894531 50.867188 30.976562 C 50.78125 31.0625 50.65625 31.171875 50.582031 31.214844 C 50.511719 31.265625 50.398438 31.332031 50.320312 31.363281 C 50.25 31.402344 50.128906 31.453125 50.050781 31.480469 C 49.972656 31.503906 49.835938 31.535156 49.753906 31.550781 C 49.664062 31.570312 49.515625 31.574219 49.382812 31.574219 C 49.257812 31.574219 49.105469 31.5625 49.019531 31.550781 C 48.945312 31.535156 48.800781 31.5 48.710938 31.472656 C 48.621094 31.441406 48.5 31.390625 48.429688 31.355469 C 48.363281 31.324219 48.269531 31.265625 48.21875 31.234375 C 48.164062 31.195312 48.0625 31.117188 47.992188 31.0625 C 47.929688 31.003906 47.820312 30.902344 47.761719 30.828125 C 47.695312 30.753906 47.605469 30.636719 47.5625 30.558594 C 47.515625 30.484375 47.445312 30.359375 47.417969 30.285156 C 47.386719 30.214844 47.355469 30.136719 47.347656 30.117188 Z M 8.289062 31.929688 L 10.675781 31.929688 L 10.675781 32.699219 C 10.675781 33.367188 10.667969 33.476562 10.648438 33.535156 C 10.628906 33.574219 10.597656 33.613281 10.566406 33.632812 L 10.515625 33.664062 L 8.4375 33.664062 L 8.378906 33.613281 C 8.339844 33.582031 8.316406 33.535156 8.308594 33.496094 C 8.296875 33.457031 8.289062 33.09375 8.289062 32.679688 Z M 48.050781 34.035156 C 48.019531 34.035156 47.953125 34.050781 47.910156 34.054688 C 47.863281 34.070312 47.792969 34.101562 47.746094 34.121094 C 47.703125 34.144531 47.632812 34.195312 47.585938 34.242188 C 47.546875 34.28125 47.492188 34.363281 47.464844 34.414062 C 47.4375 34.472656 47.414062 34.5625 47.402344 34.613281 C 47.394531 34.679688 47.386719 38.214844 47.386719 43.28125 L 47.386719 51.847656 L 46.148438 51.855469 C 45.078125 51.863281 44.886719 51.863281 44.769531 51.886719 C 44.699219 51.898438 44.578125 51.933594 44.5 51.953125 C 44.421875 51.976562 44.273438 52.035156 44.171875 52.085938 C 44.070312 52.132812 43.929688 52.207031 43.855469 52.261719 C 43.785156 52.304688 43.671875 52.394531 43.605469 52.453125 C 43.535156 52.511719 43.433594 52.613281 43.375 52.683594 C 43.316406 52.75 43.234375 52.855469 43.1875 52.921875 C 43.144531 52.984375 43.074219 53.109375 43.027344 53.199219 C 42.984375 53.289062 42.917969 53.4375 42.894531 53.527344 C 42.859375 53.617188 42.828125 53.761719 42.808594 53.851562 C 42.785156 53.988281 42.777344 54.097656 42.777344 54.664062 L 42.777344 55.3125 L 42.816406 55.402344 C 42.835938 55.453125 42.878906 55.523438 42.910156 55.5625 C 42.945312 55.609375 43.007812 55.664062 43.046875 55.699219 C 43.09375 55.730469 43.175781 55.769531 43.234375 55.789062 L 43.34375 55.820312 L 49.417969 55.8125 L 55.492188 55.8125 L 55.613281 55.75 C 55.695312 55.710938 55.761719 55.664062 55.8125 55.609375 C 55.851562 55.5625 55.902344 55.484375 55.925781 55.433594 L 55.972656 55.34375 L 55.972656 54.636719 C 55.972656 54.015625 55.964844 53.910156 55.941406 53.796875 C 55.925781 53.71875 55.890625 53.582031 55.855469 53.488281 C 55.824219 53.398438 55.765625 53.253906 55.722656 53.171875 C 55.675781 53.089844 55.613281 52.972656 55.574219 52.910156 C 55.527344 52.851562 55.445312 52.742188 55.382812 52.664062 C 55.316406 52.59375 55.199219 52.484375 55.136719 52.425781 C 55.066406 52.367188 54.957031 52.285156 54.890625 52.246094 C 54.835938 52.207031 54.726562 52.144531 54.65625 52.113281 C 54.582031 52.074219 54.472656 52.027344 54.410156 52.003906 C 54.351562 51.976562 54.242188 51.945312 54.171875 51.925781 C 54.101562 51.90625 53.964844 51.886719 53.871094 51.875 C 53.742188 51.855469 53.445312 51.847656 52.539062 51.847656 L 51.382812 51.847656 L 51.382812 43.28125 C 51.382812 38.214844 51.375 34.679688 51.363281 34.613281 C 51.355469 34.5625 51.328125 34.46875 51.304688 34.414062 C 51.277344 34.359375 51.21875 34.28125 51.175781 34.234375 C 51.128906 34.191406 51.054688 34.132812 51.007812 34.113281 C 50.957031 34.085938 50.875 34.0625 50.816406 34.050781 C 50.730469 34.035156 50.6875 34.035156 50.617188 34.050781 C 50.566406 34.0625 50.480469 34.085938 50.4375 34.105469 C 50.390625 34.125 50.308594 34.183594 50.261719 34.230469 C 50.203125 34.28125 50.152344 34.351562 50.121094 34.421875 L 50.070312 34.523438 L 50.0625 43.1875 L 50.054688 51.847656 L 48.707031 51.847656 L 48.707031 43.1875 L 48.699219 34.523438 L 48.648438 34.421875 C 48.617188 34.351562 48.566406 34.28125 48.511719 34.234375 C 48.460938 34.191406 48.390625 34.132812 48.359375 34.121094 C 48.320312 34.101562 48.25 34.074219 48.199219 34.0625 C 48.148438 34.042969 48.082031 34.035156 48.050781 34.035156 Z M 8.785156 34.980469 L 14.953125 34.980469 L 14.953125 51.527344 L 2.609375 51.527344 L 2.609375 34.988281 Z M 22.449219 34.980469 L 28.628906 34.980469 L 28.628906 51.527344 L 16.269531 51.527344 L 16.269531 34.988281 Z M 29.929688 34.980469 L 41.195312 34.980469 L 41.195312 39.625 L 29.929688 39.625 Z M 35.585938 36.664062 C 34.738281 36.65625 34.019531 36.664062 33.992188 36.671875 C 33.96875 36.675781 33.914062 36.695312 33.871094 36.714844 C 33.832031 36.734375 33.765625 36.773438 33.730469 36.804688 C 33.695312 36.832031 33.640625 36.894531 33.605469 36.941406 C 33.574219 36.980469 33.535156 37.070312 33.515625 37.128906 C 33.492188 37.21875 33.484375 37.261719 33.492188 37.359375 C 33.496094 37.453125 33.511719 37.507812 33.554688 37.597656 C 33.585938 37.667969 33.644531 37.738281 33.683594 37.777344 C 33.722656 37.816406 33.785156 37.859375 33.824219 37.886719 C 33.871094 37.910156 33.953125 37.9375 34.019531 37.949219 C 34.113281 37.96875 34.347656 37.976562 35.613281 37.96875 L 37.097656 37.96875 L 37.183594 37.9375 C 37.226562 37.925781 37.296875 37.886719 37.347656 37.851562 C 37.394531 37.816406 37.464844 37.75 37.496094 37.710938 C 37.53125 37.667969 37.574219 37.589844 37.59375 37.539062 C 37.621094 37.472656 37.625 37.417969 37.625 37.308594 L 37.632812 37.164062 L 37.574219 37.042969 C 37.535156 36.960938 37.492188 36.902344 37.421875 36.832031 C 37.355469 36.773438 37.285156 36.730469 37.226562 36.703125 L 37.128906 36.664062 Z M 29.929688 40.949219 L 41.195312 40.949219 L 41.195312 45.578125 L 29.929688 45.578125 Z M 12.300781 41.195312 C 12.191406 41.1875 12.140625 41.199219 12.070312 41.21875 C 12.019531 41.238281 11.953125 41.265625 11.921875 41.285156 C 11.898438 41.304688 11.839844 41.347656 11.792969 41.394531 C 11.753906 41.4375 11.703125 41.507812 11.679688 41.554688 C 11.660156 41.597656 11.632812 41.671875 11.621094 41.714844 C 11.609375 41.765625 11.609375 42.292969 11.609375 43.300781 L 11.613281 44.820312 L 11.652344 44.910156 C 11.671875 44.953125 11.710938 45.023438 11.734375 45.0625 C 11.761719 45.09375 11.820312 45.160156 11.863281 45.191406 C 11.910156 45.222656 11.988281 45.273438 12.039062 45.292969 C 12.109375 45.320312 12.160156 45.328125 12.261719 45.328125 C 12.367188 45.328125 12.425781 45.320312 12.496094 45.292969 C 12.546875 45.273438 12.609375 45.238281 12.648438 45.210938 C 12.6875 45.183594 12.746094 45.128906 12.777344 45.082031 C 12.816406 45.039062 12.863281 44.960938 12.878906 44.910156 L 12.917969 44.820312 L 12.917969 43.296875 C 12.925781 41.964844 12.925781 41.765625 12.898438 41.683594 C 12.886719 41.625 12.855469 41.546875 12.824219 41.496094 C 12.796875 41.453125 12.746094 41.386719 12.707031 41.355469 C 12.675781 41.324219 12.597656 41.277344 12.539062 41.253906 C 12.457031 41.214844 12.417969 41.199219 12.300781 41.195312 Z M 18.996094 41.195312 C 18.886719 41.1875 18.835938 41.195312 18.765625 41.21875 C 18.714844 41.234375 18.644531 41.273438 18.605469 41.296875 C 18.566406 41.324219 18.5 41.382812 18.46875 41.414062 C 18.4375 41.453125 18.390625 41.523438 18.371094 41.566406 C 18.347656 41.613281 18.328125 41.691406 18.316406 41.734375 C 18.308594 41.792969 18.300781 42.363281 18.300781 43.265625 C 18.300781 44.167969 18.308594 44.742188 18.316406 44.792969 C 18.328125 44.839844 18.351562 44.921875 18.371094 44.964844 C 18.398438 45.019531 18.457031 45.09375 18.5 45.140625 C 18.546875 45.183594 18.625 45.238281 18.667969 45.261719 C 18.71875 45.289062 18.804688 45.3125 18.859375 45.328125 C 18.933594 45.339844 18.984375 45.339844 19.0625 45.328125 C 19.113281 45.3125 19.203125 45.28125 19.261719 45.253906 C 19.3125 45.230469 19.386719 45.171875 19.433594 45.128906 C 19.472656 45.082031 19.53125 45 19.5625 44.941406 L 19.613281 44.832031 L 19.613281 41.675781 L 19.5625 41.574219 C 19.53125 41.507812 19.472656 41.433594 19.425781 41.382812 C 19.375 41.335938 19.296875 41.277344 19.242188 41.253906 C 19.152344 41.214844 19.105469 41.199219 18.996094 41.195312 Z M 35.585938 42.609375 C 34.359375 42.609375 34.011719 42.609375 33.960938 42.628906 C 33.929688 42.640625 33.863281 42.667969 33.824219 42.683594 C 33.785156 42.703125 33.722656 42.757812 33.675781 42.800781 C 33.632812 42.847656 33.574219 42.921875 33.550781 42.988281 L 33.496094 43.097656 L 33.496094 43.417969 L 33.550781 43.527344 C 33.574219 43.585938 33.632812 43.667969 33.675781 43.714844 C 33.722656 43.757812 33.800781 43.816406 33.859375 43.847656 L 33.960938 43.898438 L 37.148438 43.898438 L 37.257812 43.847656 C 37.324219 43.816406 37.394531 43.765625 37.445312 43.714844 C 37.484375 43.667969 37.542969 43.597656 37.566406 43.546875 C 37.585938 43.5 37.621094 43.410156 37.625 43.355469 C 37.640625 43.277344 37.640625 43.226562 37.625 43.148438 C 37.613281 43.097656 37.585938 43.007812 37.5625 42.960938 C 37.535156 42.910156 37.484375 42.832031 37.4375 42.792969 C 37.402344 42.75 37.316406 42.691406 37.257812 42.667969 L 37.148438 42.613281 Z M 29.929688 46.882812 L 41.195312 46.882812 L 41.195312 51.527344 L 29.929688 51.527344 Z M 35.554688 48.550781 C 34.308594 48.558594 34.042969 48.558594 33.972656 48.578125 C 33.921875 48.589844 33.859375 48.621094 33.820312 48.640625 C 33.773438 48.667969 33.703125 48.726562 33.660156 48.777344 C 33.601562 48.839844 33.554688 48.90625 33.535156 48.96875 C 33.515625 49.019531 33.496094 49.109375 33.492188 49.183594 C 33.484375 49.277344 33.492188 49.324219 33.515625 49.40625 C 33.535156 49.457031 33.574219 49.535156 33.601562 49.574219 C 33.625 49.613281 33.671875 49.671875 33.710938 49.703125 C 33.742188 49.734375 33.804688 49.773438 33.839844 49.792969 C 33.875 49.8125 33.949219 49.835938 34 49.851562 C 34.078125 49.871094 34.308594 49.871094 35.5625 49.871094 C 36.835938 49.871094 37.046875 49.871094 37.128906 49.851562 C 37.183594 49.832031 37.257812 49.804688 37.304688 49.78125 C 37.347656 49.753906 37.421875 49.703125 37.457031 49.65625 C 37.496094 49.613281 37.546875 49.535156 37.566406 49.492188 C 37.585938 49.445312 37.613281 49.363281 37.625 49.308594 C 37.640625 49.234375 37.640625 49.1875 37.625 49.105469 C 37.613281 49.046875 37.582031 48.957031 37.554688 48.90625 C 37.53125 48.855469 37.464844 48.777344 37.421875 48.730469 C 37.375 48.6875 37.304688 48.640625 37.257812 48.621094 C 37.222656 48.605469 37.15625 48.578125 37.117188 48.570312 C 37.078125 48.558594 36.488281 48.550781 35.554688 48.550781 Z M 6.578125 52.84375 L 8.5 52.84375 L 8.46875 52.890625 C 8.445312 52.914062 8.097656 53.289062 7.683594 53.71875 L 6.945312 54.503906 L 6.097656 54.503906 L 6.109375 54.46875 C 6.109375 54.457031 6.21875 54.085938 6.347656 53.648438 Z M 35.285156 52.84375 L 36.257812 52.851562 L 37.226562 52.851562 L 37.457031 53.640625 C 37.582031 54.070312 37.691406 54.445312 37.691406 54.464844 L 37.703125 54.503906 L 36.859375 54.503906 L 36.074219 53.671875 Z M 49.382812 53.171875 C 53.097656 53.164062 53.703125 53.171875 53.800781 53.191406 C 53.863281 53.203125 53.980469 53.25 54.0625 53.289062 C 54.191406 53.351562 54.242188 53.390625 54.34375 53.492188 C 54.453125 53.601562 54.492188 53.652344 54.550781 53.78125 C 54.597656 53.867188 54.640625 53.980469 54.65625 54.046875 C 54.667969 54.105469 54.671875 54.234375 54.671875 54.328125 L 54.671875 54.503906 L 44.082031 54.503906 L 44.09375 54.304688 C 44.101562 54.195312 44.113281 54.066406 44.128906 54.015625 C 44.148438 53.957031 44.179688 53.871094 44.203125 53.816406 C 44.230469 53.757812 44.269531 53.679688 44.300781 53.640625 C 44.328125 53.601562 44.390625 53.527344 44.4375 53.480469 C 44.488281 53.429688 44.578125 53.363281 44.636719 53.328125 C 44.691406 53.292969 44.777344 53.253906 44.816406 53.242188 C 44.855469 53.222656 44.929688 53.203125 44.984375 53.191406 C 45.058594 53.171875 45.84375 53.171875 49.382812 53.171875 Z M 49.382812 53.171875 " fill-opacity="1" fill-rule="nonzero"/></g></svg>