
<svg data-v-70b83f88="" version="1.0" xmlns="http://www.w3.org/2000/svg" xmlns:xlink="http://www.w3.org/1999/xlink" width="100%" height="100%" viewBox="0 0 340.000000 250.000000" preserveAspectRatio="xMidYMid meet" color-interpolation-filters="sRGB" style="margin: auto;"> <rect data-v-70b83f88="" x="0" y="0" width="100%" height="100%" fill="#feffff" fill-opacity="1" class="background"></rect> <rect data-v-70b83f88="" x="0" y="0" width="100%" height="100%" fill="url(#watermark)" fill-opacity="1" class="watermarklayer"></rect> <g data-v-70b83f88="" fill="#333" class="iconlinesvg-g iconlinesvg" transform="translate(74.51200103759766,112.79084491729736)"><g class="tp-name"><g transform="translate(0, 1.9161383754808323)"><g><g class="imagesvg"><g><rect fill="#333" fill-opacity="0" stroke-width="2" x="0" y="0" width="23.105440876822303" height="20.584645222834045" class="image-rect"></rect> <svg x="0" y="0" width="23.105440876822303" height="20.584645222834045" filtersec="colorsb7649308245" class="image-svg-svg primary" style="overflow: visible;"><svg xmlns="http://www.w3.org/2000/svg" viewBox="-0.0020000000949949026 -0.005000114440917969 64.37199401855469 57.349002838134766"><title>资源 24</title><path fill="#213065" d="M9.078 56.24l2.44-2.439 1.096 1.096-2.44 2.44zM4.696 56.246l6.81-6.81 1.096 1.096-6.81 6.81zM.331 56.248l11.18-11.18 1.096 1.096-11.18 11.18zM-.002 52.21L11.51 40.7l1.096 1.096L1.094 53.307z"></path><path d="M26.74 48.25a4.79 4.79 0 0 0 1.87 2 5.24 5.24 0 0 0 2.69.7h1.77a5.24 5.24 0 0 0 2.69-.7 4.85 4.85 0 0 0 1.87-2l14.29-27.73-26 26.05z" fill="#d22b27"></path><path d="M14.84 2.48a4.78 4.78 0 0 0-.79-1.14 2.67 2.67 0 0 0-.91-.6A3.17 3.17 0 0 0 12 .55H.55v48.17l11.51-11.51V24.42c0-.75 0-1.57-.08-2.45s-.13-1.79-.23-2.69L18 31.3l7.61-7.62zM24.095 43.642l39.18-39.18 1.09 1.088-39.181 39.18zM35.923 27.431L63.274.081l1.096 1.095-27.35 27.351zM22.543 40.818l7.651-7.651 1.096 1.096-7.65 7.65zM40.431 18.557L58.986.003l1.096 1.096-18.555 18.554zM21.032 37.95l7.786-7.785 1.096 1.096-7.786 7.786zM44.935 9.675l9.68-9.68 1.089 1.088-9.68 9.68zM19.673 34.956l7.65-7.65L28.42 28.4l-7.651 7.651zM18.04 32.22l7.785-7.785 1.096 1.096-7.786 7.785z" fill="#213065"></path><path d="M52.49 20q-.18 2.39-.18 4.47v32.32h11.51V8.62z" fill="#d22b27"></path></svg></svg> <!----></g></g></g></g><g transform="translate(27, 0)"><g data-gra="path-name" fill="#333" transform="scale(1)"><path d="M14.28-6.68L14.28-6.68Q14.28-3.41 12.53-1.59Q10.77 0.23 7.61 0.23L7.61 0.23Q4.59 0.23 2.80-1.63Q1.01-3.50 1.01-6.68L1.01-6.68Q1.01-9.93 2.76-11.73Q4.52-13.53 7.69-13.53L7.69-13.53Q9.64-13.53 11.15-12.70Q12.65-11.86 13.46-10.31Q14.28-8.75 14.28-6.68ZM5.67-6.68L5.67-6.68Q5.67-4.96 6.12-4.07Q6.58-3.17 7.66-3.17L7.66-3.17Q8.73-3.17 9.17-4.07Q9.61-4.96 9.61-6.68L9.61-6.68Q9.61-8.38 9.16-9.25Q8.72-10.11 7.64-10.11L7.64-10.11Q6.58-10.11 6.12-9.25Q5.67-8.39 5.67-6.68Z" transform="translate(-1.0090606870477805, 18.644156182778175)"></path></g></g><g transform="translate(44, 0)"><g data-gra="path-name" fill="#333" transform="scale(1)"><path d="M5.71 0.23L5.71 0.23Q4.29 0.23 3.23-0.57Q2.17-1.38 1.59-2.96Q1.01-4.53 1.01-6.63L1.01-6.63Q1.01-9.87 2.31-11.70Q3.61-13.53 5.89-13.53L5.89-13.53Q7.00-13.53 7.84-13.08Q8.68-12.64 9.37-11.58L9.37-11.58L9.47-11.58Q9.25-13.14 9.25-14.70L9.25-14.70L9.25-18.26L13.87-18.26L13.87 0L10.41 0L9.42-1.68L9.25-1.68Q8.06 0.23 5.71 0.23ZM7.59-3.39L7.59-3.39Q8.69-3.39 9.15-4.08Q9.60-4.78 9.63-6.22L9.63-6.22L9.63-6.58Q9.63-8.34 9.13-9.09Q8.62-9.83 7.54-9.83L7.54-9.83Q6.64-9.83 6.14-8.98Q5.64-8.13 5.64-6.56L5.64-6.56Q5.64-5.01 6.15-4.20Q6.65-3.39 7.59-3.39Z" transform="translate(-1.0090606870477807, 18.644156182778175)"></path></g></g><g transform="translate(60, 0)"><g data-gra="path-name" fill="#333" transform="scale(1)"><path d="M8.00 0.23L8.00 0.23Q4.68 0.23 2.85-1.53Q1.01-3.30 1.01-6.56L1.01-6.56Q1.01-9.93 2.71-11.73Q4.41-13.53 7.57-13.53L7.57-13.53Q10.57-13.53 12.21-11.96Q13.85-10.40 13.85-7.45L13.85-7.45L13.85-5.41L5.64-5.41Q5.69-4.29 6.46-3.66Q7.23-3.03 8.55-3.03L8.55-3.03Q9.76-3.03 10.78-3.26Q11.79-3.48 12.98-4.04L12.98-4.04L12.98-0.74Q11.90-0.19 10.75 0.02Q9.60 0.23 8.00 0.23ZM7.73-10.41L7.73-10.41Q6.92-10.41 6.38-9.90Q5.83-9.39 5.74-8.30L5.74-8.30L9.68-8.30Q9.66-9.26 9.13-9.83Q8.61-10.41 7.73-10.41Z" transform="translate(-1.0090606870477807, 18.644156182778175)"></path></g></g><g transform="translate(76, 0)"><g data-gra="path-name" fill="#333" transform="scale(1)"><path d="M9.61-13.53L9.61-13.53Q10.21-13.53 10.75-13.43L10.75-13.43L11.01-13.39L10.60-9.06Q10.03-9.20 9.03-9.20L9.03-9.20Q7.53-9.20 6.85-8.51Q6.17-7.83 6.17-6.54L6.17-6.54L6.17 0L1.58 0L1.58-13.29L5.00-13.29L5.71-11.17L5.94-11.17Q6.51-12.23 7.54-12.88Q8.57-13.53 9.61-13.53Z" transform="translate(-1.5839906133889579, 18.644156182778175)"></path></g></g><g transform="translate(89, 0)"><g data-gra="path-name" fill="#333" transform="scale(1)"><path d="M14.56 0L9.97 0L9.97-7.25Q9.97-8.58 9.59-9.25Q9.21-9.93 8.37-9.93L8.37-9.93Q7.20-9.93 6.69-9.00Q6.17-8.07 6.17-5.82L6.17-5.82L6.17 0L1.58 0L1.58-13.29L5.05-13.29L5.62-11.65L5.89-11.65Q6.48-12.59 7.52-13.06Q8.55-13.53 9.90-13.53L9.90-13.53Q12.11-13.53 13.33-12.25Q14.56-10.97 14.56-8.65L14.56-8.65L14.56 0Z" transform="translate(-1.5839906133889574, 18.644156182778175)"></path></g></g><g transform="translate(105, 0)"><g data-gra="path-name" fill="#333" transform="scale(1)"><path d="M16.41-8.94L16.41-8.94Q16.41-4.65 14.05-2.32Q11.69 0 7.40 0L7.40 0L1.85 0L1.85-17.15L7.79-17.15Q11.92-17.15 14.17-15.04Q16.41-12.93 16.41-8.94ZM11.60-8.78L11.60-8.78Q11.60-11.13 10.67-12.27Q9.74-13.41 7.84-13.41L7.84-13.41L6.49-13.41L6.49-3.80L7.52-3.80Q9.63-3.80 10.62-5.03Q11.60-6.25 11.60-8.78Z" transform="translate(-1.8538556808552247, 18.644156182778175)"></path></g></g><g transform="translate(123, 0)"><g data-gra="path-name" fill="#333" transform="scale(1)"><path d="M8.00 0.23L8.00 0.23Q4.68 0.23 2.85-1.53Q1.01-3.30 1.01-6.56L1.01-6.56Q1.01-9.93 2.71-11.73Q4.41-13.53 7.57-13.53L7.57-13.53Q10.57-13.53 12.21-11.96Q13.85-10.40 13.85-7.45L13.85-7.45L13.85-5.41L5.64-5.41Q5.69-4.29 6.46-3.66Q7.23-3.03 8.55-3.03L8.55-3.03Q9.76-3.03 10.78-3.26Q11.79-3.48 12.98-4.04L12.98-4.04L12.98-0.74Q11.90-0.19 10.75 0.02Q9.60 0.23 8.00 0.23ZM7.73-10.41L7.73-10.41Q6.92-10.41 6.38-9.90Q5.83-9.39 5.74-8.30L5.74-8.30L9.68-8.30Q9.66-9.26 9.13-9.83Q8.61-10.41 7.73-10.41Z" transform="translate(-1.0090606870477807, 18.644156182778175)"></path></g></g><g transform="translate(139, 0)"><g data-gra="path-name" fill="#333" transform="scale(1)"><path d="M11.85-4.08L11.85-4.08Q11.85-1.95 10.40-0.86Q8.94 0.23 6.22 0.23L6.22 0.23Q4.74 0.23 3.65 0.08Q2.56-0.08 1.42-0.50L1.42-0.50L1.42-4.18Q2.49-3.71 3.76-3.40Q5.03-3.10 6.03-3.10L6.03-3.10Q7.52-3.10 7.52-3.78L7.52-3.78Q7.52-4.13 7.10-4.41Q6.69-4.68 4.68-5.48L4.68-5.48Q2.85-6.23 2.12-7.19Q1.40-8.14 1.40-9.61L1.40-9.61Q1.40-11.46 2.83-12.50Q4.26-13.53 6.88-13.53L6.88-13.53Q8.19-13.53 9.35-13.24Q10.50-12.95 11.74-12.40L11.74-12.40L10.50-9.45Q9.59-9.86 8.57-10.14Q7.54-10.43 6.90-10.43L6.90-10.43Q5.77-10.43 5.77-9.88L5.77-9.88Q5.77-9.54 6.17-9.30Q6.56-9.06 8.44-8.32L8.44-8.32Q9.83-7.74 10.52-7.19Q11.21-6.64 11.53-5.90Q11.85-5.15 11.85-4.08Z" transform="translate(-1.3962583925428589, 18.644156182778175)"></path></g></g><g transform="translate(153, 0)"><g data-gra="path-name" fill="#333" transform="scale(1)"><path d="M6.20-13.29L6.20 0L1.61 0L1.61-13.29L6.20-13.29ZM1.49-16.60L1.49-16.60Q1.49-17.64 2.07-18.14Q2.64-18.64 3.92-18.64L3.92-18.64Q5.20-18.64 5.78-18.13Q6.37-17.61 6.37-16.60L6.37-16.60Q6.37-14.58 3.92-14.58L3.92-14.58Q1.49-14.58 1.49-16.60Z" transform="translate(-1.4901245029659085, 18.644156182778175)"></path></g></g><g transform="translate(161, 0)"><g data-gra="path-name" fill="#333" transform="scale(1)"><path d="M9.49-13.29L14.13-13.29L14.13-11.08L12.31-10.41Q12.68-9.73 12.68-8.82L12.68-8.82Q12.68-6.68 11.18-5.49Q9.67-4.31 6.68-4.31L6.68-4.31Q5.94-4.31 5.50-4.40L5.50-4.40Q5.34-4.09 5.34-3.83L5.34-3.83Q5.34-3.48 5.89-3.30Q6.44-3.12 7.33-3.12L7.33-3.12L9.54-3.12Q14.01-3.12 14.01 0.65L14.01 0.65Q14.01 3.07 11.94 4.42Q9.87 5.77 6.12 5.77L6.12 5.77Q3.30 5.77 1.77 4.83Q0.23 3.88 0.23 2.11L0.23 2.11Q0.23-0.27 3.19-0.96L3.19-0.96Q2.58-1.22 2.13-1.80Q1.68-2.37 1.68-2.93L1.68-2.93Q1.68-3.56 2.02-4.03Q2.36-4.51 3.44-5.16L3.44-5.16Q2.41-5.62 1.81-6.59Q1.22-7.57 1.22-8.96L1.22-8.96Q1.22-11.13 2.70-12.33Q4.18-13.53 6.92-13.53L6.92-13.53Q7.29-13.53 8.18-13.45Q9.07-13.36 9.49-13.29L9.49-13.29ZM4.11 1.65L4.11 1.65Q4.11 2.22 4.72 2.56Q5.33 2.91 6.35 2.91L6.35 2.91Q8.01 2.91 9.02 2.49Q10.02 2.08 10.02 1.42L10.02 1.42Q10.02 0.89 9.41 0.67Q8.80 0.46 7.66 0.46L7.66 0.46L5.87 0.46Q5.13 0.46 4.62 0.80Q4.11 1.15 4.11 1.65ZM5.55-8.94L5.55-8.94Q5.55-6.90 6.97-6.90L6.97-6.90Q7.63-6.90 7.98-7.40Q8.34-7.91 8.34-8.92L8.34-8.92Q8.34-10.98 6.97-10.98L6.97-10.98Q5.55-10.98 5.55-8.94Z" transform="translate(-0.2346652760576234, 18.644156182778175)"></path></g></g><g transform="translate(178, 0)"><g data-gra="path-name" fill="#333" transform="scale(1)"><path d="M14.56 0L9.97 0L9.97-7.25Q9.97-8.58 9.59-9.25Q9.21-9.93 8.37-9.93L8.37-9.93Q7.20-9.93 6.69-9.00Q6.17-8.07 6.17-5.82L6.17-5.82L6.17 0L1.58 0L1.58-13.29L5.05-13.29L5.62-11.65L5.89-11.65Q6.48-12.59 7.52-13.06Q8.55-13.53 9.90-13.53L9.90-13.53Q12.11-13.53 13.33-12.25Q14.56-10.97 14.56-8.65L14.56-8.65L14.56 0Z" transform="translate(-1.5839906133889574, 18.644156182778175)"></path></g></g></g> <!----></g><defs v-gra="od"></defs></svg>
